<?xml version="1.0" standalone="no"?>
<!DOCTYPE svg PUBLIC "-//W3C//DTD SVG 20010904//EN"
 "http://www.w3.org/TR/2001/REC-SVG-20010904/DTD/svg10.dtd">
<svg version="1.0" xmlns="http://www.w3.org/2000/svg"
 width="256.000000pt" height="197.000000pt" viewBox="0 0 256.000000 197.000000"
 preserveAspectRatio="xMidYMid meet">

<g transform="translate(0.000000,197.000000) scale(0.100000,-0.100000)"
fill="#000000" stroke="none">
<path d="M1820 1310 c0 -24 4 -30 21 -30 12 0 23 -8 26 -20 3 -13 14 -20 29
-20 17 0 24 6 24 20 0 15 7 20 26 20 22 0 25 4 22 28 -3 26 -5 27 -75 30 l-73
3 0 -31z"/>
<path d="M1870 1204 c0 -43 11 -74 25 -74 7 0 15 6 18 14 8 19 87 0 87 -21 0
-8 5 -11 11 -7 16 9 79 -55 72 -74 -4 -10 -2 -13 5 -8 7 4 16 -9 24 -36 9 -32
10 -42 0 -46 -7 -2 -12 -12 -12 -22 0 -10 5 -20 12 -22 10 -4 9 -14 0 -46 -7
-24 -17 -40 -22 -37 -6 3 -7 0 -5 -7 6 -15 -61 -85 -71 -75 -4 4 -12 0 -18 -9
-16 -22 -86 -37 -86 -18 0 19 -26 18 -34 -2 -3 -9 -6 -32 -6 -51 l0 -36 52 6
c113 14 220 97 254 199 24 73 16 182 -19 239 -52 89 -135 144 -237 156 -50 6
-50 6 -50 -23z"/>
<path d="M1430 1210 l-275 -5 154 -7 c252 -13 424 -10 462 7 l34 14 -50 -2
c-27 -1 -174 -4 -325 -7z"/>
<path d="M1215 1140 c-30 -4 38 -8 165 -9 118 0 231 -4 251 -7 28 -5 37 -2 42
10 6 14 -14 16 -201 14 -114 0 -229 -4 -257 -8z"/>
<path d="M1145 1080 c-50 -5 -16 -7 116 -8 102 -1 226 -5 276 -8 78 -6 91 -5
96 10 6 15 -13 16 -206 14 -117 -1 -243 -4 -282 -8z"/>
<path d="M1949 988 c-55 -61 -56 -61 -89 -50 -18 7 -34 11 -36 9 -1 -1 13 -22
33 -46 l36 -43 37 59 c57 91 82 133 78 132 -2 0 -28 -28 -59 -61z"/>
<path d="M1060 1020 c-89 -5 -71 -7 123 -10 373 -7 420 -6 425 8 3 9 -45 12
-220 10 -122 -1 -270 -5 -328 -8z"/>
<path d="M1231 969 c-386 -9 -477 -16 -226 -18 88 -1 257 -4 375 -8 l216 -6 1
21 c1 12 -1 21 -5 20 -4 0 -166 -5 -361 -9z"/>
<path d="M1670 930 c0 -19 11 -26 23 -14 8 8 -3 34 -14 34 -5 0 -9 -9 -9 -20z"/>
<path d="M765 910 l-180 -6 185 -2 c102 -1 329 -5 506 -9 295 -6 321 -5 321
10 0 16 -29 17 -326 15 -179 -1 -407 -5 -506 -8z"/>
<path d="M900 860 l-215 -6 206 -2 c113 -1 321 -5 463 -9 237 -6 256 -5 250
10 -5 15 -31 17 -248 15 -132 -1 -338 -5 -456 -8z"/>
<path d="M1005 800 c-22 -3 109 -8 290 -11 182 -2 332 -4 334 -2 1 1 0 6 -4
12 -7 12 -550 13 -620 1z"/>
<path d="M1155 740 c259 -12 517 -11 510 0 -4 6 -126 9 -338 8 -287 -1 -310
-3 -172 -8z"/>
<path d="M1335 690 c-263 -5 -268 -6 -89 -8 105 -1 260 -5 345 -8 143 -6 152
-5 132 10 -13 10 -37 15 -65 13 -23 -1 -169 -4 -323 -7z"/>
<path d="M47 549 c7 -7 15 -10 18 -7 3 3 -2 9 -12 12 -14 6 -15 5 -6 -5z"/>
</g>
</svg>
